 <svg xmlns="http://www.w3.org/2000/svg" width="21" height="20" viewBox="0 0 21 20" fill="none">
            <g clip-path="url(#clip0_301_1306)">
                <path fill-rule="evenodd" clip-rule="evenodd" d="M3.89056 16.6236C4.58939 6.75653 4.9388 1.74123 4.9388 1.58594L3.08233 1.78358C2.2588 1.90123 1.34351 2.54476 1.34351 3.72123L2.62821 17.1553C2.62821 17.7436 2.86351 18.2142 3.0988 18.6848C3.56939 18.9201 3.92233 19.1553 4.15762 19.1553H4.62821C3.92233 18.4495 3.77292 18.0354 3.89056 16.6236Z" fill="#0084FF" />
                <path d="M10.5001 8.23522C11.4747 8.23522 12.2648 7.44514 12.2648 6.47052C12.2648 5.4959 11.4747 4.70581 10.5001 4.70581C9.52544 4.70581 8.73535 5.4959 8.73535 6.47052C8.73535 7.44514 9.52544 8.23522 10.5001 8.23522Z" fill="#0084FF" />
                <path fill-rule="evenodd" clip-rule="evenodd" d="M16.9705 8.47051C16.7352 8.23522 16.2647 8.11757 16.0294 8.35286L12.7352 11.1764C12.4999 11.294 12.4999 11.647 12.7352 11.8823L13.4411 12.7058C13.6764 12.9411 13.6764 13.4117 13.3235 13.647C13.2058 13.7646 13.0882 13.7646 12.8529 13.7646C12.6176 13.7646 12.5 13.647 12.3823 13.5293L10.2647 10.9411C10.0294 10.7058 9.55877 10.5882 9.32348 10.8235L6.26466 13.1764L5.79407 16.8235C5.79407 17.4117 6.02936 18.7058 6.6176 18.8235L16.9705 19.5293C17.2058 19.5293 17.5588 19.5293 17.7941 19.294C18.0294 19.0587 18.3823 18.4705 18.5 18.2352L19.2058 11.294L16.9705 8.47051Z" fill="#0084FF" />
                <path fill-rule="evenodd" clip-rule="evenodd" d="M16.853 19.4117L7.20593 18.5882C6.3824 18.4705 5.67651 17.647 5.67651 16.7058L6.85298 3.29406C6.97063 2.35288 7.79416 1.76465 8.73534 1.76465L18.3824 2.58818C19.3236 2.70583 19.9118 3.52935 19.9118 4.47053L18.7353 17.8823C18.6177 18.8235 17.7942 19.5294 16.853 19.4117Z" stroke="#0084FF" stroke-width="1.17647" stroke-linecap="round" stroke-linejoin="round" />
            </g>
            <defs>
                <clipPath id="clip0_301_1306">
                    <rect width="20" height="20" fill="white" transform="translate(0.5)" />
                </clipPath>
            </defs>
        </svg>